<?xml version="1.0" encoding="UTF-8" standalone="no"?>
<svg
   xmlns:dc="http://purl.org/dc/elements/1.1/"
   xmlns:cc="http://creativecommons.org/ns#"
   xmlns:rdf="http://www.w3.org/1999/02/22-rdf-syntax-ns#"
   xmlns:svg="http://www.w3.org/2000/svg"
   xmlns="http://www.w3.org/2000/svg"
   id="svg8"
   version="1.1"
   viewBox="0 0 213.17857 213.17857"
   height="100%"
   width="100%">
  <defs
     id="defs2" />
  <g
     transform="translate(162.52975,-42.244049)"
     id="layer1">
    <g
       id="g868">
      <rect
         style="fill:#1a1a1a;fill-opacity:0.86376815;stroke-width:0.26458332"
         id="rect815"
         width="213.17857"
         height="213.17857"
         x="-162.52975"
         y="42.244049" />
      <g
         id="g848"
         transform="matrix(0.15659711,0,0,0.15659711,-83.094162,115.39996)">
        <path
           id="path828"
           d="m 232.39844,154.70312 c -5.52344,0 -10,4.47657 -10,10 v 189 c 0,5.51954 4.47656,10 10,10 5.52343,0 10,-4.48046 10,-10 v -189 c 0,-5.52343 -4.47657,-10 -10,-10 z m 0,0" />
        <path
           id="path830"
           d="m 114.39844,154.70312 c -5.52344,0 -10,4.47657 -10,10 v 189 c 0,5.51954 4.47656,10 10,10 5.52344,0 10,-4.48046 10,-10 v -189 c 0,-5.52343 -4.47656,-10 -10,-10 z m 0,0" />
        <path
           id="path832"
           d="M 28.398438,127.12109 V 373.5 c 0,14.5625 5.339843,28.23828 14.667968,38.05078 9.285156,9.83984 22.207032,15.42578 35.730469,15.44922 H 268 c 13.52734,-0.0234 26.44922,-5.60938 35.73047,-15.44922 9.32812,-9.8125 14.66797,-23.48828 14.66797,-38.05078 V 127.12109 c 18.54297,-4.92187 30.55859,-22.83593 28.07812,-41.863278 C 343.99219,66.234375 327.78516,52.003906 308.59766,52 H 257.39844 V 39.5 C 257.45703,28.988281 253.30078,18.894531 245.85937,11.46875 238.41797,4.046875 228.30859,-0.0859375 217.79687,0 H 129 C 118.48828,-0.0859375 108.37891,4.046875 100.9375,11.46875 93.496094,18.894531 89.339844,28.988281 89.398438,39.5 V 52 H 38.199219 C 19.011719,52.003906 2.804688,66.234375 0.320312,85.257812 -2.160156,104.28516 9.855469,122.19922 28.398438,127.12109 Z M 268,407 H 78.796875 C 61.699219,407 48.398438,392.3125 48.398438,373.5 V 128 H 298.39844 v 245.5 c 0,18.8125 -13.30078,33.5 -30.39844,33.5 z M 109.39844,39.5 c -0.0664,-5.207031 1.98047,-10.21875 5.67578,-13.894531 C 118.76563,21.929688 123.78906,19.910156 129,20 h 88.79687 c 5.21094,-0.08984 10.23438,1.929688 13.92579,5.605469 3.69531,3.671875 5.74218,8.6875 5.67578,13.894531 V 52 h -128 z M 38.199219,72 H 308.59766 c 9.9414,0 18,8.058594 18,18 0,9.941406 -8.0586,18 -18,18 H 38.199219 c -9.941407,0 -18,-8.058594 -18,-18 0,-9.941406 8.058593,-18 18,-18 z m 0,0" />
        <path
           id="path834"
           d="m 173.39844,154.70312 c -5.52344,0 -10,4.47657 -10,10 v 189 c 0,5.51954 4.47656,10 10,10 5.52343,0 10,-4.48046 10,-10 v -189 c 0,-5.52343 -4.47657,-10 -10,-10 z m 0,0" />
      </g>
    </g>
  </g>
</svg>
